<?xml version="1.0" encoding="utf-8"?>
<!-- Generator: Adobe Illustrator 22.0.0, SVG Export Plug-In . SVG Version: 6.00 Build 0)  -->
<svg version="1.1" id="Layer_1" xmlns="http://www.w3.org/2000/svg" xmlns:xlink="http://www.w3.org/1999/xlink" x="0px" y="0px"
	 viewBox="0 0 1400 800" style="enable-background:new 0 0 1400 800;" xml:space="preserve">
<style type="text/css">
	.st0{fill:#1E1D45;}
	.st1{font-family:'OpenSans-SemiboldItalic';}
	.st2{font-size:67.3467px;}
	.st3{fill:#EDC627;}
	.st4{fill:#474889;}
	.st5{fill:#EB8063;}
	.st6{fill:#CE6249;}
	.st7{fill:#F5B076;}
	.st8{fill:#EAE1DA;}
	.st9{fill:#D6C9C1;}
	.st10{fill:#CEBDB2;}
	.st11{fill:#D3475B;}
	.st12{fill:#2A2D68;}
	.st13{fill:#AF2E47;}
	.st14{fill:#EA9628;}
	.st15{opacity:0.38;}
	.st16{fill:#FFFFFF;}
</style>
<text transform="matrix(1 0 0 1 363.1235 113.1577)" class="st0 st1 st2">Growing Your Revenue</text>
<polygon class="st3" points="1173.8,465 1147.9,416.5 1122,465 1132.9,465 1132.9,594.8 1162.8,594.8 1162.8,465 "/>
<polygon class="st3" points="1291.7,465 1265.8,416.5 1239.9,465 1250.8,465 1250.8,594.8 1280.7,594.8 1280.7,465 "/>
<polygon class="st4" points="1232,417.8 1206.1,369.2 1180.1,417.8 1191.1,417.8 1191.1,490.2 1221,490.2 1221,417.8 "/>
<path class="st4" d="M1336.6,674.6H93.5c-4.6,0-8.3-3.7-8.3-8.3v-4.5c0-4.6,3.7-8.3,8.3-8.3h1243.1c4.6,0,8.3,3.7,8.3,8.3v4.5
	C1344.9,670.9,1341.2,674.6,1336.6,674.6z"/>
<g>
	<path class="st5" d="M1230.3,482.2c0,0-4.4-18.9-18.1-24.4h0c-1.4-0.6-2.9-1-4.5-1.2c0,0,0,0,0,0c-1.6,0.2-3.1,0.7-4.5,1.2
		c-13.7,5.5-18.1,24.4-18.1,24.4c-39.2-30.4-11.2,24.7-7,32.9l25.1-3.2h9.1l26.3,4.1C1242.7,507.8,1269.5,451.9,1230.3,482.2z"/>
	<g>
		<path class="st6" d="M1239.8,475.8c2,8.5-8.1,30.6-12,38.6l10.7,1.7C1242.3,508.6,1264.6,462.1,1239.8,475.8z"/>
		<path class="st6" d="M1199.9,512h-9.3l-13.2,1.7c0.3,0.6,0.5,1,0.7,1.4l22.9-3L1199.9,512z"/>
	</g>
	<path class="st5" d="M1282.2,605.5c0,41.9-33.9,55.3-75.8,55.3s-75.8-13.4-75.8-55.3c0-41.9,33.9-86.6,75.8-86.6
		S1282.2,563.7,1282.2,605.5z"/>
	<path class="st6" d="M1219.7,520.5c23.1,16.2,38.7,45.9,38.7,74.3c0,41.9-33.9,55.3-75.8,55.3c-12,0-23.4-1.1-33.6-3.7
		c13.9,10.5,34.4,14.5,57.3,14.5c41.9,0,75.8-13.4,75.8-55.3C1282.2,568.2,1255.2,528.6,1219.7,520.5z"/>
	<path class="st3" d="M1234.6,529.2h-54.9c-4.8,0-8.6-3.9-8.6-8.6l0,0c0-4.8,3.9-8.6,8.6-8.6h54.9c4.8,0,8.6,3.9,8.6,8.6l0,0
		C1243.3,525.3,1239.4,529.2,1234.6,529.2z"/>
	<path class="st3" d="M1208.3,554.4c-21.8,0-39.4,17.6-39.4,39.4c0,21.8,17.6,39.4,39.4,39.4s39.4-17.6,39.4-39.4
		C1247.6,572,1230,554.4,1208.3,554.4z M1223.1,612.1c-2.5,2.5-6.2,4-11.1,4.6v6.9h-7.4v-6.7c-5.2-0.2-10.2-1.4-15-3.5v-11.8
		c2.8,1.4,5.7,2.6,9,3.5c3.2,0.9,6.1,1.4,8.5,1.4c2,0,3.5-0.2,4.4-0.7c0.9-0.5,1.4-1.3,1.4-2.4c0-0.8-0.3-1.4-1-2
		c-0.7-0.5-1.8-1.2-3.4-1.9s-3.7-1.5-6.4-2.5c-3-1.1-5.5-2.4-7.3-3.8c-1.9-1.4-3.2-2.9-4-4.7c-0.8-1.7-1.3-3.9-1.3-6.4
		c0-3.9,1.3-7,3.8-9.2c2.5-2.2,6.3-3.6,11.3-4.1v-4.9h7.4v4.8c4.7,0.3,9.5,1.4,14.3,3.5l-4.2,10.2c-5-2.2-9.4-3.3-13.4-3.3
		c-1.9,0-3.2,0.2-4,0.7c-0.8,0.5-1.2,1.1-1.2,2c0,0.8,0.3,1.4,0.8,1.9s1.5,1.1,2.9,1.7c1.4,0.6,3.3,1.4,5.7,2.2
		c5,1.8,8.5,3.8,10.7,6c2.2,2.2,3.2,5.1,3.2,8.7C1226.9,606.3,1225.7,609.6,1223.1,612.1z"/>
</g>
<g>
	<path class="st7" d="M177.8,397.8l38.2-2.2c0,0,28.2,36.6,49.5,43.7c12.3,4.1,30.5,10.3,43.7,14.9c8.7,3,17.9-2.6,19.3-11.7v0
		c1.1-6.9-2.9-13.6-9.4-16l-19.4-7.1c-4.6-1.7-6.8-7.1-4.6-11.5l0,0c1.4-2.9,4.4-4.7,7.6-4.7l6.3,0.1c7.6,0.1,14.7,4.1,18.7,10.6
		l21.3,34.9c2.3,3.9,6.9,5.9,11.4,4.8h0c6.4-1.6,9.7-8.8,6.7-14.7c-13.5-26.5-49.4-80.8-67.5-84.7c-24.7-5.4-73,1.6-73,1.6
		l-50.1-5.1L177.8,397.8z"/>
	<rect x="69.7" y="334.8" class="st0" width="101.4" height="73.9"/>
	<rect x="171.2" y="340.9" class="st4" width="19.3" height="65.2"/>
	<circle class="st3" cx="317.6" cy="455.3" r="37.1"/>
	<path class="st7" d="M328.6,440.2c0,0.7-0.1,1.5-0.2,2.2c-1.4,9.1-10.7,14.7-19.3,11.7c-8-2.8-17.9-6.1-27.1-9.3
		c3.2-11,11.4-19.8,21.9-24l15.2,5.6C324.9,428.6,328.6,434.2,328.6,440.2z"/>
</g>
<rect x="527" y="368.2" class="st8" width="364.8" height="285.3"/>
<rect x="857.8" y="368.2" class="st9" width="34" height="285.3"/>
<g>
	<g>
		<path class="st4" d="M1083,273.7c-41.2,0-74.7,33.4-74.7,74.7s33.4,74.7,74.7,74.7c41.2,0,74.7-33.4,74.7-74.7
			S1124.3,273.7,1083,273.7z M1083,404.4c-31,0-56.1-25.1-56.1-56.1s25.1-56.1,56.1-56.1c31,0,56.1,25.1,56.1,56.1
			S1114,404.4,1083,404.4z"/>
		
			<ellipse transform="matrix(0.7071 -0.7071 0.7071 0.7071 70.8761 867.8633)" class="st8" cx="1083" cy="348.4" rx="56.1" ry="56.1"/>
		<path class="st10" d="M1083,292.3c-1,0-1.9,0-2.8,0.1c29.6,1.5,53.2,26,53.2,56s-23.6,54.5-53.2,56c0.9,0,1.9,0.1,2.8,0.1
			c31,0,56.1-25.1,56.1-56.1S1114,292.3,1083,292.3z"/>
		<g>
			<path class="st4" d="M1083,299L1083,299c-1.9,0-3.4,1.5-3.4,3.4v8.4c0,1.9,1.5,3.4,3.4,3.4l0,0c1.9,0,3.4-1.5,3.4-3.4v-8.4
				C1086.4,300.5,1084.9,299,1083,299z"/>
			<path class="st4" d="M1083,382.6L1083,382.6c-1.9,0-3.4,1.5-3.4,3.4v8.4c0,1.9,1.5,3.4,3.4,3.4l0,0c1.9,0,3.4-1.5,3.4-3.4v-8.4
				C1086.4,384.1,1084.9,382.6,1083,382.6z"/>
		</g>
		<g>
			<path class="st4" d="M1033.7,348.4L1033.7,348.4c0,1.9,1.5,3.4,3.4,3.4h8.4c1.9,0,3.4-1.5,3.4-3.4l0,0c0-1.9-1.5-3.4-3.4-3.4
				h-8.4C1035.2,345,1033.7,346.5,1033.7,348.4z"/>
			<path class="st4" d="M1117.2,348.4L1117.2,348.4c0,1.9,1.5,3.4,3.4,3.4h8.4c1.9,0,3.4-1.5,3.4-3.4l0,0c0-1.9-1.5-3.4-3.4-3.4
				h-8.4C1118.7,345,1117.2,346.5,1117.2,348.4z"/>
		</g>
	</g>
	<path class="st11" d="M1110.5,319.7c0,0-30.7,23.5-32.7,25.5c-2,2-2.1,5.3-0.1,7.3c2,2,5.2,1.9,7.3-0.1
		C1087,350.4,1110.5,319.7,1110.5,319.7z"/>
	<rect x="1068.7" y="261.8" class="st4" width="29.5" height="19.2"/>
	<rect x="1068.7" y="261.8" class="st12" width="29.5" height="7.2"/>
	<path class="st4" d="M1101.2,250.7H1067c-3.8,0-7,3.1-7,7l0,0c0,3.8,3.1,7,7,7h34.2c3.8,0,7-3.1,7-7l0,0
		C1108.1,253.8,1105,250.7,1101.2,250.7z"/>
</g>
<polygon class="st0" points="213.6,444.3 191.9,442.4 199.5,458.6 103.6,503.1 106.9,510.2 202.7,465.6 210.3,481.8 222.7,464 
	235.2,446.2 "/>
<path class="st13" d="M558.7,383.8h-60.1v12.3c0,16.6,13.5,30.1,30.1,30.1h0c16.6,0,30.1-13.5,30.1-30.1V383.8z"/>
<path class="st13" d="M678.9,383.8h-60.1v12.3c0,16.6,13.5,30.1,30.1,30.1h0c16.6,0,30.1-13.5,30.1-30.1V383.8z"/>
<path class="st9" d="M618.5,383.8h-60.1v12.3c0,16.6,13.5,30.1,30.1,30.1h0c16.6,0,30.1-13.5,30.1-30.1V383.8z"/>
<path class="st13" d="M799.2,383.8H739v12.3c0,16.6,13.5,30.1,30.1,30.1h0c16.6,0,30.1-13.5,30.1-30.1V383.8z"/>
<path class="st9" d="M738.7,383.8h-60.1v12.3c0,16.6,13.5,30.1,30.1,30.1h0c16.6,0,30.1-13.5,30.1-30.1V383.8z"/>
<path class="st13" d="M920,383.8h-60.1v12.3c0,16.6,13.5,30.1,30.1,30.1h0c16.6,0,30.1-13.5,30.1-30.1V383.8z"/>
<g>
	<polygon class="st11" points="543.9,291.8 498.6,383.8 558.7,383.8 591.1,291.8 	"/>
	<polygon class="st11" points="638.3,291.8 618.8,383.8 678.9,383.8 685.5,291.8 	"/>
	<polygon class="st8" points="590.8,291.8 558.4,383.8 618.5,383.8 638,291.8 	"/>
	<polygon class="st11" points="732.7,291.8 739,383.8 799.2,383.8 779.8,291.8 	"/>
	<polygon class="st8" points="685.2,291.8 678.6,383.8 738.7,383.8 732.4,291.8 	"/>
	<polygon class="st11" points="827.5,291.8 859.9,383.8 920,383.8 874.7,291.8 	"/>
	<polygon class="st8" points="780.1,291.8 799.5,383.8 859.6,383.8 827.3,291.8 	"/>
</g>
<path class="st9" d="M859.6,383.8h-60.1v12.3c0,16.6,13.5,30.1,30.1,30.1h0c16.6,0,30.1-13.5,30.1-30.1V383.8z"/>
<path class="st5" d="M843.2,233.8H576.8c-18.6,0-33.6,15.1-33.6,33.6v24.5h333.6v-24.5C876.8,248.8,861.7,233.8,843.2,233.8z"/>
<rect x="559.1" y="622.6" class="st9" width="50.8" height="20"/>
<rect x="588.6" y="597" class="st9" width="50.8" height="20"/>
<rect x="619.7" y="623.1" class="st9" width="50.8" height="20"/>
<rect x="800.7" y="528.9" class="st9" width="50.8" height="20"/>
<rect x="707.9" y="437.4" class="st9" width="50.8" height="20"/>
<rect x="731.3" y="621.8" class="st9" width="50.8" height="20"/>
<rect x="541.9" y="481.1" class="st9" width="48.1" height="20"/>
<g>
	<rect x="582.5" y="451.9" class="st5" width="244" height="127.6"/>
	<rect x="601.9" y="467.9" class="st4" width="205.3" height="101.1"/>
	<polygon class="st0" points="776.7,467.9 601.9,467.9 601.9,480.1 776.7,480.1 776.7,569 807.2,569 807.2,480.1 807.2,467.9 	"/>
	<path class="st5" d="M828,567.3h-245c-7.1,0-12.8,5.7-12.8,12.8l0,0c0,7.1,5.7,12.8,12.8,12.8h245c7.1,0,12.8-5.7,12.8-12.8l0,0
		C840.8,573,835.1,567.3,828,567.3z"/>
</g>
<g>
	<g>
		<path class="st3" d="M1113.6,635.5h-51.4c-2.7,0-4.9,2.2-4.9,4.9v8.5c0,2.7,2.2,4.9,4.9,4.9h51.4c2.7,0,4.9-2.2,4.9-4.9v-8.5
			C1118.4,637.6,1116.2,635.5,1113.6,635.5z"/>
		<path class="st3" d="M1113.6,617.3h-51.4c-2.7,0-4.9,2.2-4.9,4.9v8.5c0,2.7,2.2,4.9,4.9,4.9h51.4c2.7,0,4.9-2.2,4.9-4.9v-8.5
			C1118.4,619.4,1116.2,617.3,1113.6,617.3z"/>
		<path class="st14" d="M1058.3,633.6c0.9,1.1,2.3,1.8,3.8,1.8h51.4c1.5,0,2.9-0.7,3.8-1.8H1058.3z"/>
		<path class="st3" d="M1113.6,599h-51.4c-2.7,0-4.9,2.2-4.9,4.9v8.5c0,2.7,2.2,4.9,4.9,4.9h51.4c2.7,0,4.9-2.2,4.9-4.9v-8.5
			C1118.4,601.2,1116.2,599,1113.6,599z"/>
		<path class="st14" d="M1058.3,615.4c0.9,1.1,2.3,1.8,3.8,1.8h51.4c1.5,0,2.9-0.7,3.8-1.8H1058.3z"/>
		<path class="st3" d="M1113.6,580.8h-51.4c-2.7,0-4.9,2.2-4.9,4.9v8.5c0,2.7,2.2,4.9,4.9,4.9h51.4c2.7,0,4.9-2.2,4.9-4.9v-8.5
			C1118.4,583,1116.2,580.8,1113.6,580.8z"/>
		<path class="st14" d="M1058.3,597.2c0.9,1.1,2.3,1.8,3.8,1.8h51.4c1.5,0,2.9-0.7,3.8-1.8H1058.3z"/>
		<path class="st3" d="M1113.6,562.5h-51.4c-2.7,0-4.9,2.2-4.9,4.9v8.5c0,2.7,2.2,4.9,4.9,4.9h51.4c2.7,0,4.9-2.2,4.9-4.9v-8.5
			C1118.4,564.7,1116.2,562.5,1113.6,562.5z"/>
		<path class="st14" d="M1058.3,578.9c0.9,1.1,2.3,1.8,3.8,1.8h51.4c1.5,0,2.9-0.7,3.8-1.8H1058.3z"/>
		<path class="st3" d="M1113.6,544.5h-51.4c-2.7,0-4.9,2.2-4.9,4.9v8.5c0,2.7,2.2,4.9,4.9,4.9h51.4c2.7,0,4.9-2.2,4.9-4.9v-8.5
			C1118.4,546.6,1116.2,544.5,1113.6,544.5z"/>
		<path class="st14" d="M1058.3,560.8c0.9,1.1,2.3,1.8,3.8,1.8h51.4c1.5,0,2.9-0.7,3.8-1.8H1058.3z"/>
		<path class="st3" d="M1113.6,526.3h-51.4c-2.7,0-4.9,2.2-4.9,4.9v8.5c0,2.7,2.2,4.9,4.9,4.9h51.4c2.7,0,4.9-2.2,4.9-4.9v-8.5
			C1118.4,528.4,1116.2,526.3,1113.6,526.3z"/>
		<path class="st14" d="M1058.3,542.6c0.9,1.1,2.3,1.8,3.8,1.8h51.4c1.5,0,2.9-0.7,3.8-1.8H1058.3z"/>
	</g>
	<g class="st15">
		<path class="st16" d="M1057.3,622.1v8.5c0,1.1,0.4,2.2,1.1,3l0,0c0,0,0,0,0,0c0.3,0.4,0.7,0.8,1.2,1.1c0,0,0.1,0,0.1,0.1
			c0.1,0.1,0.2,0.1,0.4,0.2c0,0,0.1,0,0.1,0.1c0.1,0.1,0.2,0.1,0.3,0.1c0.1,0,0.1,0,0.2,0.1c0.1,0,0.2,0.1,0.3,0.1
			c0.1,0,0.1,0,0.2,0c0.1,0,0.2,0,0.4,0.1c0.1,0,0.1,0,0.2,0c0.2,0,0.4,0,0.5,0c-2.7,0-4.9,2.2-4.9,4.9v8.5c0,2.7,2.2,4.9,4.9,4.9
			h12.9v-18.2v-1.8v-16.4h-12.9C1059.5,617.3,1057.3,619.4,1057.3,622.1z"/>
		<path class="st16" d="M1057.3,585.7v8.5c0,1.7,0.9,3.2,2.2,4.1c0,0,0.1,0,0.1,0c0.1,0.1,0.2,0.1,0.4,0.2c0,0,0.1,0,0.1,0.1
			c0.1,0.1,0.2,0.1,0.3,0.1c0.1,0,0.1,0,0.2,0.1c0.1,0,0.2,0.1,0.3,0.1c0.1,0,0.1,0,0.2,0c0.1,0,0.2,0,0.4,0.1c0.1,0,0.1,0,0.2,0
			c0.2,0,0.4,0,0.5,0c-2.7,0-4.9,2.2-4.9,4.9v8.5c0,1.7,0.9,3.2,2.2,4.1c0,0,0.1,0,0.1,0c0.1,0.1,0.2,0.1,0.4,0.2c0,0,0.1,0,0.1,0.1
			c0.1,0.1,0.2,0.1,0.3,0.1c0.1,0,0.1,0,0.2,0.1c0.1,0,0.2,0.1,0.3,0.1c0.1,0,0.1,0,0.2,0c0.1,0,0.2,0,0.4,0.1c0.1,0,0.1,0,0.2,0
			c0.2,0,0.4,0,0.5,0h12.9v0v-1.8V599v0v-1.8v-16.4h-12.9C1059.5,580.8,1057.3,583,1057.3,585.7z"/>
		<path class="st16" d="M1062.1,526.3c-2.7,0-4.9,2.2-4.9,4.9v8.5c0,1.1,0.4,2.2,1.1,3l0,0c0,0,0,0,0,0c0.3,0.4,0.7,0.8,1.2,1.1
			c0,0,0.1,0,0.1,0.1c0.1,0.1,0.2,0.1,0.4,0.2c0,0,0.1,0,0.1,0.1c0.1,0.1,0.2,0.1,0.3,0.1c0.1,0,0.1,0,0.2,0.1
			c0.1,0,0.2,0.1,0.3,0.1c0.1,0,0.1,0,0.2,0c0.1,0,0.2,0,0.4,0.1c0.1,0,0.1,0,0.2,0c0.2,0,0.4,0,0.5,0c-2.7,0-4.9,2.2-4.9,4.9v8.5
			c0,1.1,0.4,2.2,1.1,3l0,0c0,0,0,0,0,0c0.3,0.4,0.7,0.8,1.2,1.1c0,0,0.1,0,0.1,0.1c0.1,0.1,0.2,0.1,0.4,0.2c0,0,0.1,0,0.1,0.1
			c0.1,0.1,0.2,0.1,0.3,0.1c0.1,0,0.1,0,0.2,0.1c0.1,0,0.2,0.1,0.3,0.1c0.1,0,0.1,0,0.2,0c0.1,0,0.2,0,0.3,0
			c-2.3,0.4-4.1,2.4-4.1,4.8v8.5c0,1.1,0.4,2.2,1.1,3l0,0c0,0,0,0,0,0c0.3,0.4,0.7,0.8,1.2,1.1c0,0,0.1,0,0.1,0.1
			c0.1,0.1,0.2,0.1,0.4,0.2c0,0,0.1,0,0.1,0.1c0.1,0.1,0.2,0.1,0.3,0.1c0.1,0,0.1,0,0.2,0.1c0.1,0,0.2,0.1,0.3,0.1
			c0.1,0,0.1,0,0.2,0c0.1,0,0.2,0,0.4,0.1c0.1,0,0.1,0,0.2,0c0.2,0,0.4,0,0.5,0h12.9v0v-1.8v-16.2v-0.1v-1.7v-16.4v-1.8v-16.4
			H1062.1z"/>
	</g>
	<g>
		<path class="st14" d="M1103,633.6v1.8h10.6c1.5,0,2.9-0.7,3.8-1.8H1103z"/>
		<path class="st14" d="M1103,615.4v1.8h10.6c1.5,0,2.9-0.7,3.8-1.8H1103z"/>
		<path class="st14" d="M1103,597.2v1.8h10.6c1.5,0,2.9-0.7,3.8-1.8H1103z"/>
		<path class="st14" d="M1103,578.9v1.8h10.6c1.5,0,2.9-0.7,3.8-1.8H1103z"/>
		<path class="st14" d="M1103,560.8v1.8h10.6c1.5,0,2.9-0.7,3.8-1.8H1103z"/>
		<path class="st14" d="M1103,542.6v1.8h10.6c1.5,0,2.9-0.7,3.8-1.8H1103z"/>
	</g>
	<path class="st14" d="M1100.6,544.5h12.9c2.7,0,4.9-2.2,4.9-4.9v-8.5c0-2.7-2.2-4.9-4.9-4.9h-6.7
		C1107,531.1,1106.2,538.7,1100.6,544.5z"/>
	<path class="st14" d="M1100.6,562.7h12.9c2.7,0,4.9-2.2,4.9-4.9v-8.5c0-2.7-2.2-4.9-4.9-4.9h-6.7
		C1107,549.3,1106.2,556.9,1100.6,562.7z"/>
	<path class="st14" d="M1100.6,580.7h12.9c2.7,0,4.9-2.2,4.9-4.9v-8.5c0-2.7-2.2-4.9-4.9-4.9h-6.7
		C1107,567.3,1106.2,574.9,1100.6,580.7z"/>
	<path class="st14" d="M1100.6,598.9h12.9c2.7,0,4.9-2.2,4.9-4.9v-8.5c0-2.7-2.2-4.9-4.9-4.9h-6.7
		C1107,585.5,1106.2,593.1,1100.6,598.9z"/>
	<path class="st14" d="M1100.6,617.3h12.9c2.7,0,4.9-2.2,4.9-4.9v-8.5c0-2.7-2.2-4.9-4.9-4.9h-6.7
		C1107,603.9,1106.2,611.5,1100.6,617.3z"/>
	<path class="st14" d="M1100.6,635.5h12.9c2.7,0,4.9-2.2,4.9-4.9v-8.5c0-2.7-2.2-4.9-4.9-4.9h-6.7
		C1107,622.1,1106.2,629.7,1100.6,635.5z"/>
	<path class="st14" d="M1100.6,653.5h12.9c2.7,0,4.9-2.2,4.9-4.9v-8.5c0-2.7-2.2-4.9-4.9-4.9h-6.7
		C1107,640.1,1106.2,647.7,1100.6,653.5z"/>
</g>
<polygon class="st7" points="1036.2,565.3 919,565.3 937,653.5 1018.2,653.5 "/>
<polygon class="st5" points="1010.8,565.3 992.8,653.5 1018.2,653.5 1036.2,565.3 "/>
<rect x="968.8" y="440.4" class="st5" width="12" height="124.9"/>
<rect x="998.2" y="477.8" transform="matrix(0.4174 0.9087 -0.9087 0.4174 1043.9027 -617.2598)" class="st5" width="10.4" height="55.4"/>
<rect x="944.2" y="462.6" transform="matrix(0.3474 -0.9377 0.9377 0.3474 159.798 1210.2444)" class="st5" width="10.4" height="55.4"/>
<g>
	
		<ellipse transform="matrix(0.9732 -0.2298 0.2298 0.9732 -83.7735 251.8621)" class="st3" cx="1039.7" cy="485.7" rx="33.6" ry="33.6"/>
	<path class="st16" d="M1048.9,497c-1.6,1.5-3.8,2.5-6.8,2.9v4.2h-4.6V500c-3.2-0.1-6.3-0.9-9.3-2.2v-7.3c1.7,0.9,3.6,1.6,5.5,2.2
		c2,0.6,3.7,0.9,5.3,0.9c1.2,0,2.2-0.2,2.7-0.5c0.6-0.3,0.9-0.8,0.9-1.5c0-0.5-0.2-0.9-0.6-1.2s-1.1-0.7-2.1-1.1
		c-1-0.4-2.3-0.9-4-1.5c-1.9-0.7-3.4-1.5-4.5-2.3c-1.1-0.9-2-1.8-2.5-2.9c-0.5-1.1-0.8-2.4-0.8-4c0-2.4,0.8-4.3,2.3-5.7
		s3.9-2.2,7-2.5v-3h4.6v3c2.9,0.2,5.9,0.9,8.8,2.2l-2.6,6.3c-3.1-1.4-5.8-2.1-8.3-2.1c-1.2,0-2,0.1-2.5,0.4
		c-0.5,0.3-0.7,0.7-0.7,1.3c0,0.5,0.2,0.9,0.5,1.2c0.3,0.3,0.9,0.7,1.8,1.1c0.9,0.4,2,0.8,3.5,1.4c3.1,1.1,5.3,2.3,6.6,3.7
		s2,3.2,2,5.4C1051.2,493.4,1050.4,495.4,1048.9,497z"/>
</g>
<g>
	
		<ellipse transform="matrix(0.9732 -0.2298 0.2298 0.9732 -86.2326 224.7288)" class="st3" cx="921.9" cy="482.7" rx="23.6" ry="23.6"/>
	<path class="st16" d="M928.4,490.6c-1.1,1.1-2.7,1.8-4.8,2v3h-3.2v-2.9c-2.3-0.1-4.4-0.6-6.5-1.5v-5.1c1.2,0.6,2.5,1.1,3.9,1.5
		s2.6,0.6,3.7,0.6c0.9,0,1.5-0.1,1.9-0.3c0.4-0.2,0.6-0.6,0.6-1.1c0-0.3-0.1-0.6-0.4-0.9c-0.3-0.2-0.8-0.5-1.5-0.8
		c-0.7-0.3-1.6-0.7-2.8-1.1c-1.3-0.5-2.4-1-3.2-1.6c-0.8-0.6-1.4-1.3-1.8-2c-0.4-0.7-0.5-1.7-0.5-2.8c0-1.7,0.5-3,1.6-4
		s2.7-1.6,4.9-1.8v-2.1h3.2v2.1c2.1,0.1,4.1,0.6,6.2,1.5l-1.8,4.4c-2.2-1-4.1-1.5-5.8-1.5c-0.8,0-1.4,0.1-1.7,0.3s-0.5,0.5-0.5,0.9
		c0,0.3,0.1,0.6,0.4,0.8c0.2,0.2,0.7,0.5,1.3,0.7c0.6,0.3,1.4,0.6,2.5,1c2.2,0.8,3.7,1.6,4.6,2.6c0.9,1,1.4,2.2,1.4,3.8
		C930,488.1,929.5,489.5,928.4,490.6z"/>
</g>
<g>
	
		<ellipse transform="matrix(0.9732 -0.2298 0.2298 0.9732 -72.7031 234.7048)" class="st3" cx="971.5" cy="429.6" rx="29.1" ry="29.1"/>
	<path class="st16" d="M979.5,439.4c-1.4,1.3-3.3,2.2-5.9,2.5v3.7h-3.9v-3.6c-2.8-0.1-5.5-0.8-8-1.9v-6.3c1.5,0.8,3.1,1.4,4.8,1.9
		c1.7,0.5,3.2,0.8,4.6,0.8c1.1,0,1.9-0.1,2.4-0.4c0.5-0.3,0.8-0.7,0.8-1.3c0-0.4-0.2-0.8-0.5-1.1c-0.4-0.3-1-0.6-1.8-1
		s-2-0.8-3.4-1.3c-1.6-0.6-2.9-1.3-3.9-2s-1.7-1.6-2.2-2.5s-0.7-2.1-0.7-3.4c0-2.1,0.7-3.7,2-4.9c1.3-1.2,3.4-1.9,6.1-2.2v-2.6h3.9
		v2.6c2.5,0.1,5.1,0.8,7.6,1.9l-2.3,5.4c-2.7-1.2-5.1-1.8-7.2-1.8c-1,0-1.7,0.1-2.1,0.4s-0.6,0.6-0.6,1.1c0,0.4,0.1,0.8,0.4,1
		c0.3,0.3,0.8,0.6,1.6,0.9s1.8,0.7,3.1,1.2c2.7,0.9,4.6,2,5.7,3.2s1.7,2.8,1.7,4.6C981.5,436.3,980.9,438,979.5,439.4z"/>
</g>
<g>
	<g>
		<ellipse transform="matrix(0.9732 -0.2298 0.2298 0.9732 -59.7079 38.9718)" class="st3" cx="137.5" cy="275.9" rx="39" ry="39"/>
		<path class="st16" d="M148.2,289c-1.8,1.8-4.5,2.9-7.9,3.3v4.9h-5.3v-4.8c-3.7-0.2-7.3-1-10.8-2.5v-8.5c2,1,4.1,1.8,6.4,2.5
			c2.3,0.7,4.3,1,6.1,1c1.4,0,2.5-0.2,3.2-0.5c0.7-0.3,1-0.9,1-1.7c0-0.6-0.2-1-0.7-1.4c-0.5-0.4-1.3-0.8-2.4-1.3
			c-1.1-0.5-2.7-1.1-4.6-1.8c-2.2-0.8-3.9-1.7-5.2-2.7c-1.3-1-2.3-2.1-2.9-3.3c-0.6-1.2-0.9-2.8-0.9-4.6c0-2.8,0.9-5,2.7-6.6
			s4.5-2.6,8.1-2.9v-3.5h5.3v3.4c3.4,0.2,6.8,1,10.2,2.5l-3,7.3c-3.6-1.6-6.8-2.4-9.6-2.4c-1.4,0-2.3,0.2-2.9,0.5
			c-0.6,0.3-0.8,0.8-0.8,1.5c0,0.6,0.2,1,0.6,1.4c0.4,0.4,1.1,0.8,2.1,1.2c1,0.5,2.4,1,4.1,1.6c3.6,1.3,6.1,2.7,7.7,4.3
			c1.5,1.6,2.3,3.7,2.3,6.2C150.9,284.9,150,287.2,148.2,289z"/>
	</g>
	<g>
		
			<ellipse transform="matrix(0.9732 -0.2298 0.2298 0.9732 -45.2902 25.7702)" class="st3" cx="88" cy="207.4" rx="32.9" ry="32.9"/>
		<path class="st16" d="M97,218.4c-1.5,1.5-3.8,2.4-6.7,2.8v4.2h-4.5v-4c-3.1-0.1-6.2-0.8-9.1-2.1v-7.2c1.7,0.8,3.5,1.6,5.4,2.1
			c2,0.6,3.7,0.9,5.2,0.9c1.2,0,2.1-0.1,2.7-0.4c0.6-0.3,0.9-0.8,0.9-1.5c0-0.5-0.2-0.9-0.6-1.2c-0.4-0.3-1.1-0.7-2-1.1
			c-1-0.4-2.2-0.9-3.9-1.5c-1.8-0.7-3.3-1.4-4.4-2.3c-1.1-0.8-1.9-1.8-2.4-2.8c-0.5-1-0.8-2.3-0.8-3.9c0-2.4,0.8-4.2,2.3-5.6
			c1.5-1.3,3.8-2.2,6.9-2.5v-3h4.5v2.9c2.9,0.2,5.7,0.9,8.6,2.1l-2.6,6.1c-3-1.4-5.7-2-8.1-2c-1.1,0-2,0.1-2.4,0.4
			c-0.5,0.3-0.7,0.7-0.7,1.2c0,0.5,0.2,0.9,0.5,1.2c0.3,0.3,0.9,0.7,1.8,1c0.8,0.4,2,0.8,3.5,1.3c3,1.1,5.2,2.3,6.5,3.6
			c1.3,1.4,2,3.1,2,5.2C99.3,215,98.5,216.9,97,218.4z"/>
	</g>
	<g>
		
			<ellipse transform="matrix(0.9732 -0.2298 0.2298 0.9732 -41.0353 44.403)" class="st3" cx="170.2" cy="198.4" rx="36.3" ry="36.3"/>
		<path class="st16" d="M180.1,210.6c-1.7,1.7-4.2,2.7-7.4,3.1v4.6h-4.9v-4.4c-3.5-0.2-6.8-0.9-10-2.3v-7.9c1.8,0.9,3.8,1.7,6,2.3
			c2.2,0.6,4.1,0.9,5.7,0.9c1.3,0,2.3-0.2,3-0.5c0.6-0.3,0.9-0.9,0.9-1.6c0-0.5-0.2-1-0.7-1.3c-0.5-0.4-1.2-0.8-2.3-1.2
			c-1.1-0.5-2.5-1-4.3-1.7c-2-0.7-3.6-1.6-4.9-2.5c-1.2-0.9-2.1-2-2.7-3.1s-0.8-2.6-0.8-4.3c0-2.6,0.8-4.7,2.5-6.1
			c1.7-1.5,4.2-2.4,7.6-2.7v-3.3h4.9v3.2c3.2,0.2,6.3,1,9.5,2.3l-2.8,6.8c-3.3-1.5-6.3-2.2-9-2.2c-1.3,0-2.2,0.2-2.7,0.5
			s-0.8,0.8-0.8,1.4c0,0.5,0.2,1,0.6,1.3c0.4,0.3,1,0.7,1.9,1.1c0.9,0.4,2.2,0.9,3.8,1.5c3.3,1.2,5.7,2.5,7.1,4
			c1.4,1.5,2.2,3.4,2.2,5.8C182.6,206.8,181.8,209,180.1,210.6z"/>
	</g>
</g>
<g>
	<polygon class="st4" points="1306.7,186.9 1286.3,182.6 1291.6,198.9 1195.1,230.7 1197.4,237.8 1294,206 1299.3,222.3 
		1313.3,206.7 1327.2,191.1 	"/>
	
		<rect x="1295.3" y="238.1" transform="matrix(-1 -1.224647e-16 1.224647e-16 -1 2628.7207 587.2993)" class="st11" width="38.2" height="111.1"/>
	
		<rect x="1244.1" y="265.1" transform="matrix(-1 -1.224647e-16 1.224647e-16 -1 2526.3271 614.2916)" class="st11" width="38.2" height="84.1"/>
	
		<rect x="1193.6" y="284.3" transform="matrix(-1 -1.224647e-16 1.224647e-16 -1 2425.4617 633.4674)" class="st11" width="38.2" height="64.9"/>
</g>
<path class="st7" d="M994,256.4c0-2.2-0.2-4.3-0.5-6.4l11.2-6.5l-13.9-24.1l-11.2,6.5c-3.3-2.7-7-4.9-11-6.4v-13h-27.8v13
	c-4,1.5-7.8,3.7-11,6.4l-11.2-6.5l-13.9,24.1l11.2,6.5c-0.3,2.1-0.5,4.2-0.5,6.4s0.2,4.3,0.5,6.4l-11.2,6.5l13.9,24.1l11.2-6.5
	c3.3,2.7,7,4.9,11,6.4v13h27.8v-13c4-1.5,7.8-3.7,11-6.4l11.2,6.5l13.9-24.1l-11.2-6.5C993.9,260.7,994,258.6,994,256.4z
	 M954.6,275.7c-10.7,0-19.3-8.6-19.3-19.3c0-10.7,8.6-19.3,19.3-19.3c10.7,0,19.3,8.6,19.3,19.3
	C973.9,267.1,965.3,275.7,954.6,275.7z"/>
<path class="st11" d="M466.2,546.8c0,0-24.5-1.2-26-9.2c-1.5-8.1-15.6-22.3-15.6-22.3s7.6-39-5.4-35.2c-8,2.3-19.9,9.4-27.8,14.5
	c-4.9,3.1-11.2,3-15.9-0.4c-85.9-61.4-159.3-14.1-175,36.6c-3.2-2.8-6.6-5.2-11.1-5.3c-5.5-0.1-10.4,3.7-13.7,8.2
	c-0.2,0-0.4-0.1-0.6-0.1c-3.6-0.4-6.8,1.7-8.8,4.5c-2.9,4-2.8,9.2-2.6,14c0.1,2.3,3.7,2.3,3.6,0c-0.1-3.3-0.4-6.9,0.9-10
	c0.9-2.2,2.9-4.4,5.3-4.8c-0.2,0.5-0.5,1-0.7,1.4c-1.3,2.8-1.6,6.3,0.6,8.8c2,2.4,5.4,2.7,7.8,0.6c4.3-3.7,2-9.9-2.1-12.9
	c3.7-4.6,9-7.9,14.8-4.9c2.1,1.1,3.8,2.5,5.5,4.1c-0.1,0.4-0.2,0.9-0.3,1.3c-10.4,44.5,22,76.6,29.9,83.6v2.6c0.8,6.4,3,23,6.4,29.2
	c4.2,7.8,38.1,5.5,38.1,5.5l-1.9-34.4c29,15.7,79-1.7,79-1.7s2.5,24.1,6.7,31.8c4.2,7.8,38.1,5.5,38.1,5.5l-2.7-49.5
	C414.3,610.3,451,584,451,584l-8.4-5.4c0,0,6.9,1.2,17.3-1.2S466.2,546.8,466.2,546.8z M179,545.3c-0.8,0.1-1.5,0.3-2.3,0.4
	c-2.8-1.2-1.1-5.1,0.4-7.6c0.8,0.6,1.5,1.3,1.9,2.1c0.5,0.8,0.7,1.7,0.7,2.6C180,543.7,179.7,544.5,179,545.3z M413.7,538.1
	c-3,0-5.4-2.4-5.4-5.4s2.4-5.4,5.4-5.4s5.4,2.4,5.4,5.4S416.7,538.1,413.7,538.1z"/>
<g>
	<path class="st5" d="M491.6,257.9h-107c-5.2,0-9.4,4.2-9.4,9.4v0c0,5.2,4.2,9.4,9.4,9.4h107c5.2,0,9.4-4.2,9.4-9.4v0
		C500.9,262.1,496.8,257.9,491.6,257.9z"/>
	<polygon class="st8" points="490.7,275.3 386.3,275.3 386.3,296.6 407.3,340.3 385.4,385.9 385.4,407.2 489.8,407.2 489.8,385.9 
		468.9,342.2 490.7,296.6 	"/>
	<polygon class="st7" points="416.3,318.6 424.8,336.1 452.3,336.1 460.7,318.6 	"/>
	<polygon class="st7" points="421.2,351.9 403.1,389.6 472.1,389.6 454.1,351.9 	"/>
	<path class="st5" d="M384.6,424.6h107c5.2,0,9.4-4.2,9.4-9.4l0,0c0-5.2-4.2-9.4-9.4-9.4h-107c-5.2,0-9.4,4.2-9.4,9.4l0,0
		C375.2,420.4,379.4,424.6,384.6,424.6z"/>
</g>
<g>
	<path class="st11" d="M373.4,250.5c0-43.3-35.1-78.5-78.5-78.5c-43.3,0-78.5,35.1-78.5,78.5c0,43.3,35.1,78.5,78.5,78.5v-78.5
		H373.4z"/>
	<path class="st4" d="M359.3,264.6h-50.2v50.2C336.8,314.8,359.3,292.4,359.3,264.6z"/>
</g>
</svg>
